<?xml version="1.0" encoding="utf-8"?>
<!-- Generator: Adobe Illustrator 28.1.0, SVG Export Plug-In . SVG Version: 6.00 Build 0)  -->
<svg version="1.1" id="Laag_1" xmlns="http://www.w3.org/2000/svg" xmlns:xlink="http://www.w3.org/1999/xlink" x="0px" y="0px"
	 viewBox="0 0 2834.65 1700.79" style="enable-background:new 0 0 2834.65 1700.79;" xml:space="preserve">
<style type="text/css">
	.st0{fill:none;stroke:#E62E2B;stroke-miterlimit:10;}
	.st1{font-family:'AcademyEngravedLetPlain';}
	.st2{font-size:72px;}
</style>
<g>
</g>
<path class="st0" d="M448.58,842.57l0.85,130.52c0.01,0.84,0.26,1.66,0.73,2.35l72.5,107.22c1.07,1.59,3.07,2.26,4.88,1.65
	l665.81-225.26c1.81-0.61,3.81,0.06,4.89,1.65l49.62,73.39c7.07,10.46,23.41,5.39,23.32-7.23l-0.59-89.68
	c-0.02-2.35-1.93-4.24-4.28-4.22l-398.26,2.61c-2.35,0.02-4.24,1.93-4.22,4.28l0.41,62.36c0.02,2.35-1.88,4.26-4.22,4.28l0,0
	c-2.35,0.02-4.26-1.88-4.28-4.22l-0.41-62.36c-0.02-2.35-1.93-4.24-4.28-4.22l-398.26,2.61
	C450.45,838.31,448.56,840.23,448.58,842.57z"/>
<polyline class="st0" points="864.71,971.66 865.16,1041.39 856.66,1041.45 856.21,973.13 "/>
<path class="st0" d="M1272.19,970.07l0.78,118.63c0.06,9.63-7.69,17.48-17.31,17.54l-795.68,5.21c-4.93,0.03-8.95-3.94-8.98-8.87
	l-0.83-127.14"/>
<line class="st0" x1="1247.87" y1="934.1" x2="1272.19" y2="970.07"/>
<text transform="matrix(1.2443 0 0 1 1029.1509 1041.4492)" class="st1 st2">P C </text>
</svg>
